<svg width="39" height="38" viewBox="0 0 39 38" fill="none" xmlns="http://www.w3.org/2000/svg">
<g clip-path="url(#clip0_80_394)">
<path d="M35.0245 6.33338C34.8769 6.31856 34.728 6.31856 34.5804 6.33338H4.24702C4.05261 6.3363 3.85948 6.36471 3.67285 6.41783L19.327 21.6073L35.0245 6.33338Z" fill="white"/>
<path d="M36.6275 7.80054L20.8542 23.1061C20.4482 23.4993 19.8991 23.72 19.3267 23.72C18.7542 23.72 18.2051 23.4993 17.7992 23.1061L2.16665 7.91665C2.1186 8.08875 2.09312 8.26609 2.09082 8.44443V29.5555C2.09082 30.1154 2.31909 30.6524 2.72542 31.0483C3.13175 31.4442 3.68285 31.6666 4.25749 31.6666H34.5908C35.1655 31.6666 35.7166 31.4442 36.1229 31.0483C36.5292 30.6524 36.7575 30.1154 36.7575 29.5555V8.44443C36.7489 8.22451 36.705 8.00725 36.6275 7.80054ZM5.74165 29.5555H4.23582V28.0461L12.1117 20.4355L13.6392 21.9239L5.74165 29.5555ZM34.5691 29.5555H33.0525L25.155 21.9239L26.6825 20.4355L34.5583 28.0461L34.5691 29.5555Z" fill="white"/>
</g>
<defs>
<clipPath id="clip0_80_394">
<rect width="39" height="38" fill="white"/>
</clipPath>
</defs>
</svg>
