<svg width="50" height="49" viewBox="0 0 50 49" fill="none" xmlns="http://www.w3.org/2000/svg">
<circle cx="24.6504" cy="24.5" r="24.5" fill="#2193D1"/>
<path d="M25.3287 14.6639C26.0736 14.661 26.8185 14.6685 27.5633 14.6864L27.7613 14.6935C27.99 14.7017 28.2156 14.7119 28.4881 14.7241C29.5743 14.7752 30.3154 14.9467 30.9657 15.1988C31.6394 15.4581 32.207 15.8093 32.7746 16.3769C33.2936 16.8869 33.6952 17.5038 33.9516 18.1847C34.2038 18.835 34.3753 19.5772 34.4263 20.6633C34.4386 20.9349 34.4488 21.1615 34.4569 21.3902L34.4631 21.5882C34.4812 22.3326 34.489 23.0772 34.4865 23.8218L34.4876 24.5833V25.9206C34.4901 26.6656 34.4823 27.4105 34.4641 28.1552L34.458 28.3533C34.4498 28.5819 34.4396 28.8075 34.4273 29.0801C34.3763 30.1663 34.2028 30.9074 33.9516 31.5577C33.6961 32.2393 33.2943 32.8568 32.7746 33.3666C32.2642 33.8855 31.6469 34.2871 30.9657 34.5436C30.3154 34.7958 29.5743 34.9673 28.4881 35.0183C28.2156 35.0305 27.99 35.0408 27.7613 35.0489L27.5633 35.055C26.8185 35.0732 26.0736 35.081 25.3287 35.0785L24.5671 35.0795H23.2308C22.4859 35.0821 21.741 35.0742 20.9962 35.0561L20.7982 35.0499C20.5559 35.0412 20.3136 35.0309 20.0714 35.0193C18.9852 34.9683 18.2441 34.7947 17.5928 34.5436C16.9116 34.2877 16.2945 33.886 15.7849 33.3666C15.2653 32.8565 14.8633 32.2391 14.6068 31.5577C14.3547 30.9074 14.1832 30.1663 14.1322 29.0801C14.1208 28.8379 14.1106 28.5956 14.1015 28.3533L14.0964 28.1552C14.0776 27.4105 14.0691 26.6656 14.0709 25.9206V23.8218C14.0681 23.0772 14.0755 22.3326 14.0934 21.5882L14.1005 21.3902C14.1087 21.1615 14.1189 20.9349 14.1311 20.6633C14.1822 19.5761 14.3537 18.836 14.6058 18.1847C14.8624 17.5035 15.2652 16.8867 15.7859 16.3779C16.2952 15.858 16.9118 15.4556 17.5928 15.1988C18.2441 14.9467 18.9842 14.7752 20.0714 14.7241L20.7982 14.6935L20.9962 14.6884C21.7406 14.6696 22.4852 14.6611 23.2298 14.6629L25.3287 14.6639ZM24.2792 19.7681C23.6029 19.7585 22.9315 19.8834 22.3039 20.1356C21.6763 20.3878 21.1051 20.7622 20.6235 21.2371C20.1418 21.712 19.7594 22.2778 19.4984 22.9018C19.2373 23.5257 19.1029 24.1954 19.1029 24.8717C19.1029 25.5481 19.2373 26.2177 19.4984 26.8417C19.7594 27.4656 20.1418 28.0315 20.6235 28.5063C21.1051 28.9812 21.6763 29.3556 22.3039 29.6078C22.9315 29.86 23.6029 29.9849 24.2792 29.9754C25.6329 29.9754 26.9312 29.4376 27.8884 28.4804C28.8456 27.5232 29.3834 26.2249 29.3834 24.8712C29.3834 23.5175 28.8456 22.2192 27.8884 21.262C26.9312 20.3048 25.6329 19.7681 24.2792 19.7681ZM24.2792 21.8097C24.686 21.8022 25.0903 21.8759 25.4683 22.0264C25.8463 22.1768 26.1906 22.4011 26.4809 22.6862C26.7713 22.9712 27.002 23.3112 27.1595 23.6864C27.3169 24.0615 27.3981 24.4643 27.3982 24.8712C27.3982 25.2781 27.3172 25.6809 27.1599 26.0561C27.0025 26.4313 26.7719 26.7714 26.4817 27.0565C26.1914 27.3417 25.8472 27.5661 25.4692 27.7167C25.0913 27.8673 24.6871 27.9411 24.2803 27.9337C23.468 27.9337 22.6891 27.6111 22.1147 27.0367C21.5404 26.4624 21.2178 25.6834 21.2178 24.8712C21.2178 24.059 21.5404 23.28 22.1147 22.7057C22.6891 22.1314 23.468 21.8087 24.2803 21.8087L24.2792 21.8097ZM29.6386 18.2368C29.3093 18.25 28.9978 18.3901 28.7695 18.6278C28.5411 18.8654 28.4136 19.1822 28.4136 19.5118C28.4136 19.8414 28.5411 20.1582 28.7695 20.3959C28.9978 20.6336 29.3093 20.7737 29.6386 20.7869C29.977 20.7869 30.3016 20.6524 30.5409 20.4131C30.7802 20.1738 30.9147 19.8492 30.9147 19.5108C30.9147 19.1724 30.7802 18.8478 30.5409 18.6085C30.3016 18.3692 29.977 18.2348 29.6386 18.2348V18.2368Z" fill="white"/>
</svg>
