<svg width="48" height="48" viewBox="0 0 48 48" fill="none" xmlns="http://www.w3.org/2000/svg">
<circle cx="23.9242" cy="24.3766" r="23.6234" fill="#2193D1"/>
<path d="M16.7276 14.4817C16.1681 14.4817 15.6316 14.6792 15.236 15.0309C14.8404 15.3825 14.6182 15.8595 14.6182 16.3568C14.6182 16.8541 14.8404 17.331 15.236 17.6826C15.6316 18.0343 16.1681 18.2318 16.7276 18.2318C17.287 18.2318 17.8236 18.0343 18.2191 17.6826C18.6147 17.331 18.837 16.8541 18.837 16.3568C18.837 15.8595 18.6147 15.3825 18.2191 15.0309C17.8236 14.6792 17.287 14.4817 16.7276 14.4817ZM14.7422 19.776C14.7093 19.776 14.6778 19.7876 14.6545 19.8083C14.6312 19.829 14.6182 19.857 14.6182 19.8863V31.3573C14.6182 31.4182 14.6738 31.4676 14.7422 31.4676H18.7129C18.7458 31.4676 18.7774 31.456 18.8006 31.4353C18.8239 31.4146 18.837 31.3865 18.837 31.3573V19.8863C18.837 19.857 18.8239 19.829 18.8006 19.8083C18.7774 19.7876 18.7458 19.776 18.7129 19.776H14.7422ZM21.1945 19.776C21.1616 19.776 21.1301 19.7876 21.1068 19.8083C21.0835 19.829 21.0705 19.857 21.0705 19.8863V31.3573C21.0705 31.4182 21.1261 31.4676 21.1945 31.4676H25.1652C25.1981 31.4676 25.2297 31.456 25.2529 31.4353C25.2762 31.4146 25.2893 31.3865 25.2893 31.3573V25.1806C25.2893 24.7418 25.4854 24.321 25.8344 24.0107C26.1835 23.7004 26.6569 23.5261 27.1505 23.5261C27.6441 23.5261 28.1176 23.7004 28.4666 24.0107C28.8157 24.321 29.0118 24.7418 29.0118 25.1806V31.3573C29.0118 31.4182 29.0673 31.4676 29.1358 31.4676H33.1065C33.1394 31.4676 33.171 31.456 33.1942 31.4353C33.2175 31.4146 33.2306 31.3865 33.2306 31.3573V23.7511C33.2306 21.6096 31.1361 19.9348 28.7388 20.1281C27.997 20.1881 27.2705 20.3513 26.5857 20.6116L25.2893 21.1058V19.8863C25.2893 19.857 25.2762 19.829 25.2529 19.8083C25.2297 19.7876 25.1981 19.776 25.1652 19.776H21.1945Z" fill="white"/>
</svg>
