<svg width="44" height="40" viewBox="0 0 44 40" fill="none" xmlns="http://www.w3.org/2000/svg">
<path d="M11.0003 23.3333H25.667V20H11.0003V23.3333ZM11.0003 18.3333H33.0003V15H11.0003V18.3333ZM11.0003 13.3333H33.0003V13.1667C31.8698 12.9444 30.8388 12.5628 29.9075 12.0217C28.9762 11.4806 28.1738 10.8067 27.5003 10H11.0003V13.3333ZM3.66699 36.6667V3.33333H25.8503C25.7281 3.88889 25.667 4.44444 25.667 5C25.667 5.55555 25.7281 6.11111 25.8503 6.66667H7.33366V28.5417L9.44199 26.6667H36.667V13.1667C37.3698 13.0278 38.0267 12.8406 38.6378 12.605C39.2489 12.3694 39.8142 12.0567 40.3337 11.6667V30H11.0003L3.66699 36.6667ZM34.8337 10C33.3059 10 32.0073 9.51389 30.9378 8.54167C29.8684 7.56944 29.3337 6.38889 29.3337 5C29.3337 3.61111 29.8684 2.43056 30.9378 1.45833C32.0073 0.486111 33.3059 0 34.8337 0C36.3614 0 37.66 0.486111 38.7295 1.45833C39.7989 2.43056 40.3337 3.61111 40.3337 5C40.3337 6.38889 39.7989 7.56944 38.7295 8.54167C37.66 9.51389 36.3614 10 34.8337 10Z" fill="#2193D1"/>
</svg>
