<svg width="26" height="36" viewBox="0 0 26 36" fill="none" xmlns="http://www.w3.org/2000/svg">
<path d="M13 17.1C11.7686 17.1 10.5877 16.6259 9.717 15.782C8.8463 14.9381 8.35714 13.7935 8.35714 12.6C8.35714 11.4065 8.8463 10.2619 9.717 9.41802C10.5877 8.57411 11.7686 8.1 13 8.1C14.2314 8.1 15.4123 8.57411 16.283 9.41802C17.1537 10.2619 17.6429 11.4065 17.6429 12.6C17.6429 13.1909 17.5228 13.7761 17.2894 14.3221C17.0561 14.868 16.7141 15.3641 16.283 15.782C15.8519 16.1998 15.34 16.5313 14.7767 16.7575C14.2134 16.9836 13.6097 17.1 13 17.1ZM13 0C9.55219 0 6.24558 1.3275 3.80761 3.69045C1.36964 6.05341 0 9.25827 0 12.6C0 22.05 13 36 13 36C13 36 26 22.05 26 12.6C26 9.25827 24.6304 6.05341 22.1924 3.69045C19.7544 1.3275 16.4478 0 13 0Z" fill="white"/>
</svg>
